<?xml version="1.0" encoding="UTF-8"?>
<!DOCTYPE svg PUBLIC "-//W3C//DTD SVG 1.1//EN" "http://www.w3.org/Graphics/SVG/1.1/DTD/svg11.dtd">
<svg class="logo" xmlns="http://www.w3.org/2000/svg" version="1.1"
    viewBox="0 0 2141 882"
    width="250"
    style="shape-rendering:geometricPrecision; text-rendering:geometricPrecision; image-rendering:optimizeQuality; fill-rule:evenodd; clip-rule:evenodd"
    xmlns:xlink="http://www.w3.org/1999/xlink">
    <g>
        <path style="opacity:0.968" fill="currentColor"
            d="M 1511.5,25.5 C 1544.42,26.5822 1566.58,42.5822 1578,73.5C 1591.32,123.061 1580.15,166.227 1544.5,203C 1530.62,215.772 1514.29,223.438 1495.5,226C 1491.14,226.534 1486.81,226.368 1482.5,225.5C 1481.73,235.474 1476.9,238.474 1468,234.5C 1452.29,242.865 1438.29,253.532 1426,266.5C 1417.07,277.352 1411.07,289.685 1408,303.5C 1406.14,324.185 1404.14,344.851 1402,365.5C 1397.93,382.477 1388.76,395.977 1374.5,406C 1362.23,414.219 1349.06,420.719 1335,425.5C 1332.04,424.092 1331.21,421.925 1332.5,419C 1353.04,412.825 1370.54,401.992 1385,386.5C 1389.87,379.898 1393.2,372.564 1395,364.5C 1397.02,345.537 1398.68,326.537 1400,307.5C 1402.48,291.382 1408.81,277.048 1419,264.5C 1431.49,250.335 1445.99,238.835 1462.5,230C 1463.98,227.238 1465.65,224.571 1467.5,222C 1440.53,207.271 1425.7,184.438 1423,153.5C 1420.31,110.873 1434.48,75.0394 1465.5,46C 1478.96,34.798 1494.29,27.9647 1511.5,25.5 Z" />
    </g>
    <g>
        <path style="opacity:0.996" fill="#fccd0d"
            d="M 1506.5,32.5 C 1537.73,30.1975 1559.23,43.5308 1571,72.5C 1584.63,118.811 1575.46,159.977 1543.5,196C 1531.3,207.599 1516.97,215.265 1500.5,219C 1469.7,221.685 1448.2,208.852 1436,180.5C 1422.38,136.945 1429.71,97.2781 1458,61.5C 1471.27,46.7905 1487.44,37.1238 1506.5,32.5 Z" />
    </g>
    <g>
        <path style="opacity:1" fill="#f5c505"
            d="M 1472.5,226.5 C 1474.35,226.272 1475.19,226.939 1475,228.5C 1472.37,229.692 1471.53,229.026 1472.5,226.5 Z" />
    </g>
    <g>
        <path style="opacity:1" fill="#b21409"
            d="M 1777.5,362.5 C 1803.75,360.228 1827.75,366.395 1849.5,381C 1868.67,399.507 1880.34,422.007 1884.5,448.5C 1867.24,452.866 1850.07,457.532 1833,462.5C 1828.69,449.717 1822.19,438.217 1813.5,428C 1785.88,412.03 1764.71,418.197 1750,446.5C 1741.28,470.034 1737.45,494.368 1738.5,519.5C 1737.33,543.116 1740.49,566.116 1748,588.5C 1759.46,614.808 1778.96,623.642 1806.5,615C 1815.95,610.555 1823.11,603.721 1828,594.5C 1831.61,587.621 1834.94,580.621 1838,573.5C 1853.08,578.192 1868.25,582.692 1883.5,587C 1886.62,587.585 1889.29,588.919 1891.5,591C 1868.73,661.722 1821.4,687.388 1749.5,668C 1722.61,655.108 1704.11,634.608 1694,606.5C 1684.14,578.007 1679.64,548.674 1680.5,518.5C 1679.51,486.756 1684.68,456.089 1696,426.5C 1711.1,389.545 1738.27,368.212 1777.5,362.5 Z" />
    </g>
    <g>
        <path style="opacity:1" fill="#4c6baf"
            d="M 1918.5,366.5 C 1937.5,366.5 1956.5,366.5 1975.5,366.5C 1975.5,449.167 1975.5,531.833 1975.5,614.5C 2013.5,614.5 2051.5,614.5 2089.5,614.5C 2089.5,633.167 2089.5,651.833 2089.5,670.5C 2032.5,670.5 1975.5,670.5 1918.5,670.5C 1918.5,569.167 1918.5,467.833 1918.5,366.5 Z" />
    </g>
    <g>
        <path style="opacity:0.994" fill="currentColor"
            d="M 177.5,468.5 C 221.087,465.037 250.587,483.704 266,524.5C 278.156,562.783 275.156,599.783 257,635.5C 233.984,667.137 203.817,676.637 166.5,664C 156.168,658.667 147.335,651.501 140,642.5C 139.667,679.167 139.333,715.833 139,752.5C 122.241,753.658 105.407,753.825 88.5,753C 87.3349,660.237 87.1682,567.403 88,474.5C 104.426,473.342 120.926,473.176 137.5,474C 138.313,480.419 138.813,486.919 139,493.5C 143.833,487.333 149.333,481.833 155.5,477C 162.607,473.248 169.94,470.415 177.5,468.5 Z M 170.5,511.5 C 189.893,508.945 204.059,516.278 213,533.5C 222.17,555.544 222.836,577.878 215,600.5C 209.742,614.711 199.576,622.545 184.5,624C 164.525,626.802 150.692,618.969 143,600.5C 135.847,578.791 135.847,557.125 143,535.5C 148.687,523.301 157.854,515.301 170.5,511.5 Z" />
    </g>
    <g>
        <path style="opacity:0.993" fill="currentColor"
            d="M 374.5,468.5 C 382.42,468.185 390.253,468.518 398,469.5C 398.667,486.5 398.667,503.5 398,520.5C 390.265,520.55 382.431,520.717 374.5,521C 354.587,522.913 343.087,533.746 340,553.5C 339.667,590.167 339.333,626.833 339,663.5C 321.907,664.658 304.741,664.825 287.5,664C 286.336,600.904 286.169,537.737 287,474.5C 303.093,473.342 319.259,473.176 335.5,474C 336.312,480.085 336.812,486.252 337,492.5C 346.178,479.326 358.678,471.326 374.5,468.5 Z" />
    </g>
    <g>
        <path style="opacity:0.994" fill="currentColor"
            d="M 476.5,468.5 C 513.394,463.959 544.228,475.292 569,502.5C 590.3,535.517 594.967,570.851 583,608.5C 573.654,634.513 556.154,652.68 530.5,663C 497.94,673.79 466.607,671.124 436.5,655C 414.137,640.467 400.637,619.967 396,593.5C 390.382,564.711 394.382,537.378 408,511.5C 424.274,486.728 447.107,472.395 476.5,468.5 Z M 486.5,512.5 C 517.258,511.09 533.758,525.756 536,556.5C 537.462,571.115 536.128,585.448 532,599.5C 528.976,609.389 522.809,616.556 513.5,621C 499.172,626.918 484.839,626.918 470.5,621C 461.675,616.221 455.508,609.055 452,599.5C 445.479,577.257 446.146,555.257 454,533.5C 461.023,520.574 471.856,513.574 486.5,512.5 Z" />
    </g>
    <g>
        <path style="opacity:0.994" fill="currentColor"
            d="M 671.5,468.5 C 697.706,464.614 718.873,472.947 735,493.5C 735.187,486.919 735.687,480.419 736.5,474C 753.407,473.175 770.241,473.342 787,474.5C 787.667,542.167 787.667,609.833 787,677.5C 782.552,709.897 765.385,732.73 735.5,746C 706.833,756 678.167,756 649.5,746C 617.124,732.313 600.791,707.98 600.5,673C 616.167,672.333 631.833,672.333 647.5,673C 650.104,697.337 663.77,709.17 688.5,708.5C 704.017,708.821 717.183,703.487 728,692.5C 731.704,687.058 734.037,681.058 735,674.5C 735.667,664.167 735.667,653.833 735,643.5C 721.786,659.681 704.62,667.014 683.5,665.5C 641.875,665.058 615.375,644.724 604,604.5C 596.955,576.727 598.289,549.394 608,522.5C 620.259,493.721 641.426,475.721 671.5,468.5 Z M 692.5,513.5 C 715.374,513.213 729.207,524.213 734,546.5C 737.287,562.514 737.287,578.514 734,594.5C 728.137,613.508 715.303,623.508 695.5,624.5C 675.716,622.889 662.882,612.556 657,593.5C 653.076,576.93 653.076,560.263 657,543.5C 661.774,524.875 673.608,514.875 692.5,513.5 Z" />
    </g>
    <g>
        <path style="opacity:0.993" fill="currentColor"
            d="M 875.5,468.5 C 902.007,465.047 926.34,470.547 948.5,485C 966.167,498.825 976.167,516.992 978.5,539.5C 978.471,541.029 977.804,542.196 976.5,543C 960.167,543.667 943.833,543.667 927.5,543C 919.542,516.353 902.209,507.02 875.5,515C 866.175,519.945 860.175,527.611 857.5,538C 852.257,559.698 853.09,581.198 860,602.5C 872.35,626.26 890.183,631.427 913.5,618C 920.719,611.562 925.052,603.562 926.5,594C 943.407,593.175 960.241,593.342 977,594.5C 976.174,610.162 970.841,624.162 961,636.5C 931.07,668.559 895.236,677.393 853.5,663C 825.368,648.276 808.868,625.11 804,593.5C 800.33,569.555 801.663,545.888 808,522.5C 820.015,491.312 842.515,473.312 875.5,468.5 Z" />
    </g>
    <g>
        <path style="opacity:0.994" fill="currentColor"
            d="M 1066.5,468.5 C 1096.6,464.61 1123.6,471.777 1147.5,490C 1169.78,511.486 1180.78,537.819 1180.5,569C 1180.84,603.64 1167.51,631.64 1140.5,653C 1111.99,669.857 1081.65,673.857 1049.5,665C 1015.68,653.511 994.844,630.344 987,595.5C 980.918,566.483 984.585,538.816 998,512.5C 1014.07,487.377 1036.9,472.71 1066.5,468.5 Z M 1076.5,512.5 C 1091.16,511.034 1103.99,515.034 1115,524.5C 1123.9,537.918 1128.07,552.751 1127.5,569C 1127.89,583.887 1124.39,597.72 1117,610.5C 1107.88,620.806 1096.38,625.806 1082.5,625.5C 1055.33,624.159 1040.83,609.826 1039,582.5C 1036.29,563.952 1038.95,546.285 1047,529.5C 1054.41,519.547 1064.24,513.88 1076.5,512.5 Z" />
    </g>
    <g>
        <path style="opacity:0.993" fill="currentColor"
            d="M 1284.5,468.5 C 1313.13,463.412 1334.96,473.079 1350,497.5C 1358.26,481.922 1371.09,472.422 1388.5,469C 1413.49,465.217 1434.65,472.384 1452,490.5C 1460.89,501.609 1465.89,514.276 1467,528.5C 1467.83,573.738 1467.66,618.904 1466.5,664C 1449.59,664.825 1432.76,664.658 1416,663.5C 1415.67,621.833 1415.33,580.167 1415,538.5C 1411.5,516.673 1399,508.173 1377.5,513C 1366.53,517.986 1360.03,526.486 1358,538.5C 1356.87,580.376 1356.04,622.209 1355.5,664C 1338.59,664.825 1321.76,664.658 1305,663.5C 1304.96,619.472 1304.3,575.472 1303,531.5C 1301.86,522.015 1296.69,516.181 1287.5,514C 1276.04,510.948 1265.38,512.614 1255.5,519C 1251.54,523.427 1249.04,528.594 1248,534.5C 1246.7,577.468 1246.03,620.468 1246,663.5C 1229,664.833 1212,664.833 1195,663.5C 1194.33,600.5 1194.33,537.5 1195,474.5C 1210.76,473.343 1226.59,473.176 1242.5,474C 1243.32,481.421 1243.82,488.921 1244,496.5C 1253.03,480.625 1266.53,471.292 1284.5,468.5 Z" />
    </g>
    <g>
        <path style="opacity:0.994" fill="currentColor"
            d="M 1573.5,468.5 C 1618.36,465.505 1648.19,485.172 1663,527.5C 1672.31,559.16 1671.31,590.493 1660,621.5C 1639.8,663.574 1607.3,677.741 1562.5,664C 1552.17,658.667 1543.34,651.501 1536,642.5C 1535.67,679.167 1535.33,715.833 1535,752.5C 1518.24,753.658 1501.41,753.825 1484.5,753C 1483.33,660.237 1483.17,567.403 1484,474.5C 1500.43,473.342 1516.93,473.176 1533.5,474C 1534.31,480.419 1534.81,486.919 1535,493.5C 1544.39,479.73 1557.22,471.397 1573.5,468.5 Z M 1566.5,511.5 C 1585.84,509.033 1600,516.367 1609,533.5C 1618.24,555.559 1618.9,577.892 1611,600.5C 1605.74,614.711 1595.58,622.545 1580.5,624C 1560.43,626.89 1546.6,619.057 1539,600.5C 1531.83,578.787 1531.83,557.12 1539,535.5C 1544.69,523.301 1553.85,515.301 1566.5,511.5 Z" />
    </g>
</svg>