<svg xmlns="http://www.w3.org/2000/svg" viewBox="0 0 457 425" preserveAspectRatio="xMidYMid meet"
    version="1.0">
    <metadata>Created by potrace 1.10, written by Peter Selinger 2001-2011</metadata>

    <g>
        <title>Layer 1</title>
        <g id="svg_1" fill="currentColor"
            transform="translate(0.000000,500.000000) scale(0.100000,-0.100000)">
            <path id="svg_2"
                d="m1487,4652c-14,-15 -17,-57 -22,-273l-6,-254l-55,-110c-30,-60 -64,-147 -77,-193c-19,-73 -24,-82 -42,-77c-11,3 -44,11 -73,17c-46,9 -55,9 -72,-7c-24,-22 -26,-67 -4,-86c9,-8 48,-25 87,-39l71,-25l12,-86c7,-47 22,-112 33,-145c12,-32 21,-59 21,-60c0,-1 -21,-5 -47,-9c-57,-8 -83,-29 -83,-65c0,-50 28,-63 122,-55l83,6l23,-34c26,-39 127,-140 187,-188c22,-17 73,-49 113,-71c39,-22 72,-45 72,-52c0,-7 -6,-35 -14,-62c-8,-27 -21,-75 -30,-106l-17,-58l-792,0c-891,0 -866,2 -912,-69c-14,-20 -27,-50 -31,-67c-6,-30 17,-150 86,-444c16,-69 41,-177 55,-240c14,-63 30,-133 35,-155c5,-22 16,-69 24,-105c88,-398 86,-391 122,-415c19,-12 24,-24 24,-56c0,-45 20,-91 59,-132c56,-60 -37,-57 1538,-57c1400,0 1445,1 1481,19c60,31 95,79 107,149c5,34 13,46 38,58c41,21 85,62 103,97c13,23 21,27 59,27c66,0 177,26 262,61c62,26 89,46 157,113c125,123 176,245 176,417c0,183 -65,334 -262,610c-98,136 -137,265 -109,352c7,20 30,51 51,71c42,38 91,52 143,42c17,-4 61,-9 97,-12c54,-4 71,-2 98,15c94,59 96,195 3,256c-149,99 -417,58 -558,-85c-174,-174 -198,-413 -69,-668c14,-29 72,-121 127,-205c142,-216 163,-262 167,-363c4,-71 1,-88 -23,-137c-15,-33 -42,-68 -63,-85c-47,-36 -137,-74 -165,-70c-20,3 -22,10 -28,98c-19,300 -121,529 -356,799c-81,93 -171,219 -208,291c-10,19 -31,71 -46,115l-28,80l36,30c79,66 167,152 200,198c25,34 40,46 52,42c9,-3 44,-9 78,-12c73,-7 103,10 103,58c0,39 -21,56 -80,64c-27,4 -50,10 -50,13c0,4 9,30 19,57c10,28 24,86 31,130c7,44 15,86 19,94c4,8 36,23 70,32c35,10 72,26 82,35c25,22 24,66 -1,89c-21,19 -35,18 -146,-11c-18,-5 -22,0 -29,33c-10,58 -81,233 -112,278c-26,38 -28,48 -34,190c-4,83 -8,204 -8,271c-1,104 -4,123 -19,137c-40,37 -66,24 -214,-110l-140,-126l-52,17c-128,43 -190,58 -316,76c-163,24 -225,25 -372,5c-139,-19 -188,-29 -306,-67c-54,-17 -98,-26 -106,-21c-7,4 -73,61 -146,126c-139,123 -168,138 -203,99zm1786,-630c60,-91 113,-220 119,-292l3,-34l-200,-64c-229,-72 -225,-71 -244,-104c-13,-23 -13,-29 2,-52c25,-37 56,-34 237,23c85,28 168,53 184,57l29,7l-8,-49c-7,-49 -41,-150 -56,-170c-6,-7 -52,-5 -151,8c-193,23 -213,23 -232,-4c-21,-30 -20,-53 4,-76c16,-15 54,-24 155,-37c74,-10 135,-21 135,-26c0,-4 -23,-31 -51,-59c-136,-136 -328,-234 -543,-277c-101,-20 -350,-22 -456,-4c-177,31 -353,106 -486,207c-89,67 -157,144 -128,144c3,0 63,7 132,16c102,12 131,19 150,36c26,25 28,45 6,76c-20,28 -58,29 -236,2l-133,-20l-17,21c-33,39 -73,209 -50,209c6,0 89,-25 184,-55c193,-62 233,-66 257,-24c13,24 13,29 -2,52c-14,22 -52,37 -224,93c-115,36 -212,70 -216,74c-18,17 33,175 88,273l56,99l6,194c3,107 10,194 14,194c5,0 19,-10 31,-22c13,-13 59,-54 102,-91c90,-78 79,-77 218,-27c86,30 119,38 268,66c98,18 293,17 400,-1c147,-26 176,-33 270,-70c51,-19 100,-35 110,-35c13,0 85,54 120,90c3,3 30,27 60,54l55,49l6,-207c6,-199 8,-208 32,-244zm1033,-945c40,-21 49,-43 28,-74c-13,-21 -21,-24 -47,-18c-18,3 -69,9 -115,12c-75,5 -87,3 -137,-22c-58,-28 -112,-83 -142,-144c-13,-26 -17,-59 -17,-121c0,-73 5,-96 34,-165c19,-44 63,-123 99,-175c165,-241 201,-305 225,-400c50,-198 13,-352 -115,-481c-93,-93 -214,-148 -326,-149c-42,0 -42,0 -37,33c3,17 7,37 9,43c2,6 32,17 67,23c91,18 156,51 216,109c72,70 105,143 110,248c7,138 -27,223 -181,451c-151,222 -197,331 -197,466c0,175 104,317 275,374c55,18 210,12 251,-10zm-1251,-278c47,-137 115,-248 248,-407c187,-222 243,-311 300,-482c45,-135 52,-179 52,-335c0,-237 -36,-351 -118,-373c-24,-6 -39,-4 -57,7c-20,13 -68,17 -292,19c-168,2 -268,7 -268,13c0,6 12,21 26,34c21,19 38,25 74,25c87,0 105,51 48,136c-20,30 -40,75 -47,110c-11,53 -10,66 8,124c35,111 117,185 221,197c56,7 80,23 80,55c0,54 -51,70 -145,44c-169,-45 -275,-186 -275,-367c0,-47 7,-97 18,-132l19,-56l-46,-29c-43,-26 -78,-76 -95,-134c-4,-14 -16,-18 -50,-18l-45,0l38,83c54,116 130,383 167,591c46,255 44,239 28,263c-31,48 -104,17 -104,-44c0,-26 -64,-349 -86,-438c-60,-234 -140,-425 -179,-425c-7,0 -17,26 -24,63c-7,34 -19,91 -27,127c-12,50 -13,80 -6,130c78,526 93,635 88,654c-7,28 -44,46 -72,35c-34,-12 -29,15 -81,-386c-3,-24 -9,-43 -13,-43c-4,0 -17,44 -29,98c-120,551 -130,588 -173,629c-44,42 -91,53 -232,53c-118,0 -118,0 -112,23c4,12 13,51 22,87c8,36 19,68 23,73c4,4 41,-4 82,-17c135,-44 263,-59 443,-53c210,7 371,42 502,111c27,14 53,24 58,22c5,-1 19,-31 31,-67zm-904,-312c17,-13 33,-68 74,-262c14,-66 36,-165 49,-220c13,-55 31,-134 40,-175c9,-41 21,-93 26,-115c40,-174 63,-276 84,-373l24,-112l-1012,2l-1011,3l-37,165c-21,91 -54,237 -74,325c-20,88 -40,176 -44,195c-4,19 -19,85 -33,145c-90,393 -90,395 -71,416c17,18 44,19 993,19c753,-1 980,-3 992,-13zm317,-1398c1,-8 -8,-31 -21,-50l-23,-34l-942,-3c-931,-2 -942,-2 -962,18c-19,19 -27,69 -13,83c3,4 445,6 982,5c872,-3 976,-5 979,-19zm970,9c18,-18 15,-42 -9,-72l-20,-26l-420,0l-419,0l6,43c3,23 7,48 10,55c5,17 834,18 852,0z" />
            <path id="svg_3"
                d="m1960,3825c-31,-33 -32,-87 -2,-117c31,-32 97,-31 123,1c67,82 -49,193 -121,116z" />
            <path id="svg_4"
                d="m2764,3835c-12,-8 -27,-27 -33,-44c-24,-56 36,-122 96,-106c65,16 87,104 37,144c-31,25 -71,27 -100,6z" />
            <path id="svg_5"
                d="m2260,3635c-33,-40 3,-105 57,-105c25,0 26,-1 20,-60c-7,-77 -35,-122 -93,-151c-39,-18 -57,-21 -116,-16c-81,7 -96,3 -109,-29c-23,-62 28,-94 145,-93c98,1 117,9 242,103c9,7 22,0 45,-22c56,-55 126,-82 213,-82c81,0 122,11 142,38c19,25 17,49 -6,72c-18,18 -29,20 -103,14c-73,-5 -86,-3 -122,18c-47,27 -85,94 -93,163c-5,45 -4,45 27,45c59,0 93,67 53,103c-26,24 -283,25 -302,2z" />
        </g>
        <path id="svg_6" d="m767.5,506.16667" opacity="NaN" stroke="#000" fill="#fff" />
    </g>
</svg>